<?xml version="1.0" encoding="UTF-8" standalone="no"?>
<!-- Created with Inkscape (http://www.inkscape.org/) -->

<svg
   xmlns:dc="http://purl.org/dc/elements/1.1/"
   xmlns:cc="http://creativecommons.org/ns#"
   xmlns:rdf="http://www.w3.org/1999/02/22-rdf-syntax-ns#"
   xmlns:svg="http://www.w3.org/2000/svg"
   xmlns="http://www.w3.org/2000/svg"
   xmlns:sodipodi="http://sodipodi.sourceforge.net/DTD/sodipodi-0.dtd"
   xmlns:inkscape="http://www.inkscape.org/namespaces/inkscape"
   width="600"
   height="300"
   viewBox="0 0 158.75 79.375002"
   version="1.1"
   id="svg8"
   inkscape:version="0.92.4 (5da689c313, 2019-01-14)"
   sodipodi:docname="binary_search03.svg"
   inkscape:export-filename="C:\Users\SHIRASAKI\Documents\codes\notebooks\python_playground\binary_search03.png"
   inkscape:export-xdpi="96"
   inkscape:export-ydpi="96">
  <defs
     id="defs2">
    <marker
       inkscape:stockid="Arrow1Lend"
       orient="auto"
       refY="0.0"
       refX="0.0"
       id="Arrow1Lend"
       style="overflow:visible;"
       inkscape:isstock="true">
      <path
         id="path820"
         d="M 0.0,0.0 L 5.0,-5.0 L -12.5,0.0 L 5.0,5.0 L 0.0,0.0 z "
         style="fill-rule:evenodd;stroke:#000000;stroke-width:1pt;stroke-opacity:1;fill:#000000;fill-opacity:1"
         transform="scale(0.8) rotate(180) translate(12.5,0)" />
    </marker>
    <marker
       inkscape:stockid="Arrow1Lstart"
       orient="auto"
       refY="0.0"
       refX="0.0"
       id="Arrow1Lstart"
       style="overflow:visible"
       inkscape:isstock="true">
      <path
         id="path817"
         d="M 0.0,0.0 L 5.0,-5.0 L -12.5,0.0 L 5.0,5.0 L 0.0,0.0 z "
         style="fill-rule:evenodd;stroke:#000000;stroke-width:1pt;stroke-opacity:1;fill:#000000;fill-opacity:1"
         transform="scale(0.8) translate(12.5,0)" />
    </marker>
    <clipPath
       id="clipPath">
      <rect
         y="220.27081"
         x="10.583333"
         height="50.270832"
         width="134.9375"
         id="rect889"
         style="opacity:0.97000002;fill:none;fill-opacity:1;stroke:#000000;stroke-width:0.5;stroke-linejoin:round;stroke-miterlimit:4;stroke-dasharray:none;stroke-dashoffset:0;stroke-opacity:1" />
    </clipPath>
  </defs>
  <sodipodi:namedview
     id="base"
     pagecolor="#ffffff"
     bordercolor="#666666"
     borderopacity="1.0"
     inkscape:pageopacity="0.0"
     inkscape:pageshadow="2"
     inkscape:zoom="1.4"
     inkscape:cx="400.31478"
     inkscape:cy="103.98348"
     inkscape:document-units="mm"
     inkscape:current-layer="layer1"
     showgrid="true"
     units="px"
     inkscape:snap-text-baseline="false"
     inkscape:snap-grids="true"
     inkscape:window-width="1920"
     inkscape:window-height="1017"
     inkscape:window-x="-8"
     inkscape:window-y="-8"
     inkscape:window-maximized="1">
    <inkscape:grid
       id="grid1248"
       type="xygrid" />
  </sodipodi:namedview>
  <metadata
     id="metadata5">
    <rdf:RDF>
      <cc:Work
         rdf:about="">
        <dc:format>image/svg+xml</dc:format>
        <dc:type
           rdf:resource="http://purl.org/dc/dcmitype/StillImage" />
        <dc:title></dc:title>
      </cc:Work>
    </rdf:RDF>
  </metadata>
  <g
     inkscape:label="レイヤー 1"
     inkscape:groupmode="layer"
     id="layer1"
     transform="translate(0,-217.62498)">
    <g
       id="g1240"
       transform="translate(-0.14105667,-10.422163)"
       style="stroke-width:0.5;stroke-miterlimit:4;stroke-dasharray:none">
      <path
         inkscape:connector-curvature="0"
         id="path1143"
         d="m 11.22532,281.49835 134.43657,-0.53454"
         style="fill:none;stroke:#000000;stroke-width:0.5;stroke-linecap:butt;stroke-linejoin:miter;stroke-opacity:1;marker-start:url(#Arrow1Lstart);marker-end:url(#Arrow1Lend);stroke-miterlimit:4;stroke-dasharray:none" />
      <g
         aria-label="x"
         style="font-style:italic;font-variant:normal;font-weight:normal;font-stretch:normal;font-size:14.74893284px;line-height:1.25;font-family:serif;-inkscape-font-specification:'serif, Italic';font-variant-ligatures:normal;font-variant-caps:normal;font-variant-numeric:normal;font-feature-settings:normal;text-align:start;letter-spacing:0px;word-spacing:0px;writing-mode:lr-tb;text-anchor:start;fill:#000000;fill-opacity:1;stroke:none;stroke-width:0.5;stroke-miterlimit:4;stroke-dasharray:none"
         id="text1223">
        <path
           d="m 151.46229,277.58647 q 0.35288,0.37448 0.53292,0.74897 0.12963,0.25926 0.4249,1.36111 l 0.63374,-0.95062 q 0.25206,-0.34568 0.61214,-0.65535 0.36008,-0.31687 0.63374,-0.43209 0.17284,-0.072 0.38169,-0.072 0.30967,0 0.48971,0.16564 0.18724,0.16563 0.18724,0.40329 0,0.27366 -0.10802,0.37448 -0.20165,0.18004 -0.4609,0.18004 -0.15124,0 -0.32408,-0.0648 -0.33847,-0.11523 -0.4537,-0.11523 -0.17284,0 -0.41049,0.20165 -0.4465,0.37448 -1.06584,1.44753 l 0.59053,2.47736 q 0.13683,0.56892 0.23045,0.68415 0.0936,0.10802 0.18724,0.10802 0.15124,0 0.35288,-0.16563 0.39609,-0.33128 0.67696,-0.8642 l 0.25205,0.12963 q -0.4537,0.84979 -1.15226,1.41152 -0.39609,0.31687 -0.66975,0.31687 -0.40329,0 -0.64094,-0.4537 -0.15124,-0.28086 -0.62654,-2.41975 -1.12346,1.95164 -1.80041,2.51337 -0.4393,0.36008 -0.84979,0.36008 -0.28807,0 -0.52572,-0.20885 -0.17284,-0.15843 -0.17284,-0.42489 0,-0.23765 0.15843,-0.39609 0.15844,-0.15844 0.38889,-0.15844 0.23045,0 0.48971,0.23046 0.18725,0.16563 0.28807,0.16563 0.0864,0 0.22325,-0.11522 0.33848,-0.27366 0.92181,-1.18107 0.58333,-0.90741 0.76337,-1.3107 -0.4465,-1.74999 -0.48251,-1.85081 -0.16564,-0.46811 -0.4321,-0.66255 -0.26646,-0.19445 -0.78497,-0.19445 -0.16564,0 -0.38169,0.0144 v -0.25926 z"
           style="font-style:italic;font-variant:normal;font-weight:normal;font-stretch:normal;font-size:14.74893284px;font-family:serif;-inkscape-font-specification:'serif, Italic';font-variant-ligatures:normal;font-variant-caps:normal;font-variant-numeric:normal;font-feature-settings:normal;text-align:start;writing-mode:lr-tb;text-anchor:start;stroke-width:0.5;stroke-miterlimit:4;stroke-dasharray:none"
           id="path866" />
      </g>
    </g>
    <path
       id="path862"
       title="exp(-x*x)"
       d=" M 145.520833 270.541642 C 145.520144543 268.147792914 144.822248862 265.755433153 143.484472293 263.529080517 C 142.146695723 261.302727881 140.168676908 259.245563012 137.711250656 257.483827722 C 135.253824405 255.722092432 132.317429905 254.258616134 129.122077455 253.155876175 C 125.926725005 252.053136217 122.474321381 251.313001467 118.992752252 250.927478672 C 115.511183124 250.541955877 112.002868429 250.511780671 108.657167205 250.770570715 C 105.311465981 251.029360758 102.130502048 251.576943185 99.2359485954 252.313171928 C 96.3413951426 253.049400671 93.7346575782 253.973629343 91.4625840074 254.979809497"
       style="opacity:0.97000002;fill:none;fill-opacity:1;stroke:none;stroke-width:0.5;stroke-linejoin:round;stroke-miterlimit:4;stroke-dasharray:none;stroke-dashoffset:0;stroke-opacity:1" />
    <path
       id="path883"
       title="exp(-x*x)"
       d=" M 145.520833 270.541648 C 145.520144543 268.399782908 144.822248862 266.25925037 143.484472293 264.267250531 C 142.146695723 262.275250692 140.168676908 260.434629391 137.711250656 258.858339832 C 135.253824405 257.282050274 132.317429905 255.972624038 129.122077455 254.985961915 C 125.926725005 253.999299791 122.474321381 253.337073926 118.992752252 252.992132458 C 115.511183124 252.64719099 112.002868429 252.62019212 108.657167205 252.85174112 C 105.311465981 253.083290119 102.130502048 253.573232318 99.2359485954 254.231963335 C 96.3413951426 254.890694353 93.7346575782 255.717635843 91.4625840074 256.617902347"
       style="opacity:0.97000002;fill:none;fill-opacity:1;stroke:none;stroke-width:0.5;stroke-linejoin:round;stroke-miterlimit:4;stroke-dasharray:none;stroke-dashoffset:0;stroke-opacity:1" />
    <path
       style="opacity:0.97000002;fill:none;fill-opacity:1;stroke:none;stroke-width:0.5;stroke-linejoin:round;stroke-miterlimit:4;stroke-dasharray:none;stroke-dashoffset:0;stroke-opacity:1"
       d="M 10.583333,220.27081 H 145.52083 v 50.27084 H 10.583333 Z"
       id="rect1244" />
    <path
       style="fill:none;stroke:#000000;stroke-width:0.26458332px;stroke-linecap:butt;stroke-linejoin:miter;stroke-opacity:1"
       d="m 18.520833,228.20831 c 0,0 13.229167,23.8125 39.6875,23.8125 26.458333,0 47.624997,0 47.624997,0 0,0 13.22917,0 18.52084,5.29167 5.29166,5.29167 10.58333,2.64583 10.58333,2.64583 5.29167,-2.64583 5.29167,-2.64583 5.29167,-2.64583 v 0"
       id="path852"
       inkscape:connector-curvature="0" />
    <path
       style="fill:none;stroke:#000000;stroke-width:0.26458332;stroke-linecap:butt;stroke-linejoin:miter;stroke-opacity:1;stroke-miterlimit:4;stroke-dasharray:0.26458332,0.79374995;stroke-dashoffset:0"
       d="m 63.499999,252.02081 v 18.52084"
       id="path854"
       inkscape:connector-curvature="0" />
    <path
       style="fill:none;stroke:#000000;stroke-width:0.26499999;stroke-linecap:butt;stroke-linejoin:miter;stroke-opacity:1;stroke-miterlimit:4;stroke-dasharray:0.26499999,0.79499996;stroke-dashoffset:0"
       d="m 100.54167,252.02081 v 18.52084"
       id="path856"
       inkscape:connector-curvature="0" />
    <g
       aria-label="mid_left"
       style="font-style:normal;font-weight:normal;font-size:3.93370247px;line-height:1.25;font-family:sans-serif;letter-spacing:0px;word-spacing:0px;fill:#000000;fill-opacity:1;stroke:none;stroke-width:0.09834256"
       id="text860">
      <path
         d="m 59.649337,276.49805 h -0.361102 v -1.2216 q 0,-0.1383 -0.01344,-0.26699 -0.01153,-0.12869 -0.05186,-0.20552 -0.04418,-0.0826 -0.12677,-0.12485 -0.08259,-0.0422 -0.238173,-0.0422 -0.15174,0 -0.303479,0.0768 -0.15174,0.0749 -0.303479,0.19207 0.0058,0.0442 0.0096,0.10372 0.0038,0.0576 0.0038,0.11525 v 1.37334 h -0.361102 v -1.2216 q 0,-0.14214 -0.01344,-0.26891 -0.01152,-0.12869 -0.05186,-0.20552 -0.04418,-0.0826 -0.12677,-0.12293 -0.08259,-0.0422 -0.238173,-0.0422 -0.147898,0 -0.297717,0.073 -0.147898,0.073 -0.295796,0.18631 v 1.60191 h -0.361102 v -2.14548 h 0.361102 v 0.23817 q 0.169026,-0.14022 0.336132,-0.21897 0.169026,-0.0788 0.35918,-0.0788 0.218966,0 0.370706,0.0922 0.15366,0.0922 0.228569,0.25546 0.218966,-0.18439 0.399517,-0.26507 0.180551,-0.0826 0.386071,-0.0826 0.353419,0 0.520525,0.21513 0.169026,0.2132 0.169026,0.59735 z"
         style="stroke-width:0.09834256"
         id="path882" />
      <path
         d="m 60.732642,273.99338 h -0.4072 v -0.37454 h 0.4072 z m -0.02305,2.50467 h -0.361102 v -2.14548 h 0.361102 z"
         style="stroke-width:0.09834256"
         id="path884" />
      <path
         d="m 63.168157,276.49805 h -0.361102 v -0.22473 q -0.155581,0.13445 -0.324607,0.20936 -0.169026,0.0749 -0.366864,0.0749 -0.384151,0 -0.610799,-0.2958 -0.224729,-0.29579 -0.224729,-0.82016 0,-0.27274 0.07683,-0.48595 0.07875,-0.2132 0.211282,-0.36302 0.130612,-0.14598 0.303479,-0.22281 0.174789,-0.0768 0.361102,-0.0768 0.169026,0 0.299638,0.0365 0.130611,0.0346 0.274667,0.10948 v -0.92965 h 0.361102 z m -0.361102,-0.52821 v -1.2312 q -0.145977,-0.0653 -0.261222,-0.0903 -0.115245,-0.025 -0.251619,-0.025 -0.303479,0 -0.472505,0.21128 -0.169026,0.21129 -0.169026,0.59928 0,0.38223 0.130611,0.58199 0.130611,0.19784 0.418724,0.19784 0.15366,0 0.311162,-0.0672 0.157502,-0.0691 0.293875,-0.17671 z"
         style="stroke-width:0.09834256"
         id="path886" />
      <path
         d="m 66.032,277.07427 h -2.516187 v -0.23049 H 66.032 Z"
         style="stroke-width:0.09834256"
         id="path888" />
      <path
         d="m 66.748441,276.49805 h -0.361102 v -2.9887 h 0.361102 z"
         style="stroke-width:0.09834256"
         id="path890" />
      <path
         d="m 69.262706,275.46276 h -1.58078 q 0,0.19784 0.05954,0.34574 0.05954,0.14597 0.163264,0.24009 0.09988,0.0922 0.236252,0.13829 0.138295,0.0461 0.303479,0.0461 0.218966,0 0.439853,-0.0864 0.222807,-0.0884 0.316924,-0.17287 h 0.01921 v 0.39376 q -0.182472,0.0768 -0.372627,0.12869 -0.190154,0.0519 -0.399516,0.0519 -0.53397,0 -0.833607,-0.28812 -0.299638,-0.29003 -0.299638,-0.82208 0,-0.52629 0.286193,-0.83553 0.288113,-0.30924 0.756776,-0.30924 0.434091,0 0.668422,0.25354 0.236253,0.25354 0.236253,0.72028 z m -0.351498,-0.27659 q -0.0019,-0.28427 -0.144056,-0.43985 -0.140215,-0.15558 -0.428328,-0.15558 -0.290034,0 -0.462902,0.17095 -0.170947,0.17094 -0.193996,0.42448 z"
         style="stroke-width:0.09834256"
         id="path892" />
      <path
         d="m 70.964494,273.85893 h -0.01921 q -0.05954,-0.0173 -0.155581,-0.0346 -0.09604,-0.0192 -0.169026,-0.0192 -0.232411,0 -0.338053,0.10372 -0.103721,0.1018 -0.103721,0.37071 v 0.073 h 0.651136 v 0.30347 H 70.19043 v 1.84201 h -0.361102 v -1.84201 h -0.243935 v -0.30347 h 0.243935 v -0.0711 q 0,-0.38223 0.190155,-0.58583 0.190155,-0.20552 0.549335,-0.20552 0.121008,0 0.217045,0.0115 0.09796,0.0115 0.178631,0.0269 z"
         style="stroke-width:0.09834256"
         id="path894" />
      <path
         d="m 72.3071,276.47884 q -0.1018,0.0269 -0.222807,0.0442 -0.119087,0.0173 -0.213204,0.0173 -0.328449,0 -0.499396,-0.17671 -0.170947,-0.17671 -0.170947,-0.56662 v -1.14093 H 70.95681 v -0.30347 h 0.243936 V 273.736 h 0.361102 v 0.61657 H 72.3071 v 0.30347 h -0.745252 v 0.97767 q 0,0.16902 0.0077,0.26506 0.0077,0.0941 0.05378,0.17671 0.04226,0.0768 0.115245,0.11333 0.07491,0.0346 0.226649,0.0346 0.08835,0 0.184392,-0.025 0.09604,-0.0269 0.138294,-0.0442 h 0.01921 z"
         style="stroke-width:0.09834256"
         id="path896" />
    </g>
    <g
       aria-label="mid_right"
       style="font-style:normal;font-weight:normal;font-size:3.93370247px;line-height:1.25;font-family:sans-serif;letter-spacing:0px;word-spacing:0px;fill:#000000;fill-opacity:1;stroke:none;stroke-width:0.09834256"
       id="text864">
      <path
         d="m 94.436896,276.26181 h -0.361101 v -1.2216 q 0,-0.13829 -0.01345,-0.26698 -0.01152,-0.12869 -0.05186,-0.20552 -0.04418,-0.0826 -0.12677,-0.12485 -0.08259,-0.0423 -0.238173,-0.0423 -0.151739,0 -0.303479,0.0768 -0.151739,0.0749 -0.303479,0.19208 0.0058,0.0442 0.0096,0.10372 0.0038,0.0576 0.0038,0.11524 v 1.37334 h -0.361101 v -1.2216 q 0,-0.14213 -0.01345,-0.2689 -0.01152,-0.12869 -0.05186,-0.20552 -0.04418,-0.0826 -0.12677,-0.12293 -0.08259,-0.0423 -0.238173,-0.0423 -0.147898,0 -0.297717,0.073 -0.147898,0.073 -0.295796,0.18631 v 1.60191 h -0.361101 v -2.14548 h 0.361101 v 0.23817 q 0.169027,-0.14021 0.336132,-0.21896 0.169026,-0.0788 0.359181,-0.0788 0.218966,0 0.370705,0.0922 0.153661,0.0922 0.22857,0.25546 0.218966,-0.18439 0.399517,-0.26506 0.18055,-0.0826 0.386071,-0.0826 0.353419,0 0.520524,0.21512 0.169026,0.2132 0.169026,0.59735 z"
         style="stroke-width:0.09834256"
         id="path899" />
      <path
         d="m 95.520201,273.75715 h -0.407199 v -0.37455 h 0.407199 z m -0.02305,2.50466 h -0.361101 v -2.14548 h 0.361101 z"
         style="stroke-width:0.09834256"
         id="path901" />
      <path
         d="m 97.955716,276.26181 h -0.361101 v -0.22473 q -0.155581,0.13445 -0.324608,0.20936 -0.169026,0.0749 -0.366863,0.0749 -0.384151,0 -0.6108,-0.29579 -0.224728,-0.2958 -0.224728,-0.82016 0,-0.27275 0.07683,-0.48595 0.07875,-0.21321 0.211283,-0.36303 0.130611,-0.14597 0.303479,-0.2228 0.174789,-0.0768 0.361102,-0.0768 0.169026,0 0.299637,0.0365 0.130611,0.0346 0.274668,0.10948 v -0.92964 h 0.361101 z m -0.361101,-0.52821 v -1.2312 q -0.145977,-0.0653 -0.261223,-0.0903 -0.115245,-0.025 -0.251618,-0.025 -0.303479,0 -0.472506,0.21128 -0.169026,0.21128 -0.169026,0.59927 0,0.38223 0.130611,0.58199 0.130612,0.19784 0.418725,0.19784 0.15366,0 0.311162,-0.0672 0.157501,-0.0691 0.293875,-0.17671 z"
         style="stroke-width:0.09834256"
         id="path903" />
      <path
         d="m 100.81956,276.83804 h -2.516187 v -0.23049 h 2.516187 z"
         style="stroke-width:0.09834256"
         id="path905" />
      <path
         d="m 102.50982,274.51008 h -0.0192 q -0.0807,-0.0192 -0.1575,-0.0269 -0.0749,-0.01 -0.17863,-0.01 -0.1671,0 -0.32268,0.0749 -0.15558,0.073 -0.29964,0.19015 v 1.52316 h -0.3611 v -2.14548 h 0.3611 v 0.31692 q 0.21512,-0.17286 0.37839,-0.24393 0.16518,-0.073 0.33613,-0.073 0.0941,0 0.13637,0.006 0.0423,0.004 0.12677,0.0173 z"
         style="stroke-width:0.09834256"
         id="path907" />
      <path
         d="m 103.24163,273.75715 h -0.4072 v -0.37455 h 0.4072 z m -0.023,2.50466 h -0.3611 v -2.14548 h 0.3611 z"
         style="stroke-width:0.09834256"
         id="path909" />
      <path
         d="m 105.67714,276.01787 q 0,0.5455 -0.24777,0.80096 -0.24778,0.25546 -0.76254,0.25546 -0.17095,0 -0.33421,-0.025 -0.16135,-0.0231 -0.31885,-0.0672 v -0.36878 h 0.0192 q 0.0884,0.0346 0.28043,0.0845 0.19207,0.0519 0.38415,0.0519 0.18439,0 0.3054,-0.0442 0.12101,-0.0442 0.18823,-0.12292 0.0672,-0.0749 0.096,-0.18055 0.0288,-0.10565 0.0288,-0.23626 v -0.19591 q -0.16326,0.13061 -0.31308,0.19591 -0.1479,0.0634 -0.37839,0.0634 -0.38415,0 -0.6108,-0.27659 -0.22473,-0.27851 -0.22473,-0.78367 0,-0.27659 0.0768,-0.47635 0.0787,-0.20167 0.21321,-0.34765 0.12485,-0.13637 0.30348,-0.21128 0.17863,-0.0768 0.35534,-0.0768 0.18631,0 0.31116,0.0384 0.12677,0.0365 0.26698,0.11333 l 0.023,-0.0922 h 0.33805 z m -0.3611,-0.34573 v -1.16974 q -0.14405,-0.0653 -0.2689,-0.0922 -0.12293,-0.0288 -0.24586,-0.0288 -0.29772,0 -0.46866,0.19976 -0.17095,0.19976 -0.17095,0.58007 0,0.3611 0.12677,0.54741 0.12677,0.18632 0.42064,0.18632 0.15751,0 0.31501,-0.0596 0.15942,-0.0615 0.29195,-0.16326 z"
         style="stroke-width:0.09834256"
         id="path911" />
      <path
         d="m 108.18181,276.26181 h -0.36111 v -1.2216 q 0,-0.1479 -0.0173,-0.27659 -0.0173,-0.13061 -0.0634,-0.2036 -0.048,-0.0807 -0.13829,-0.11908 -0.0903,-0.0403 -0.23433,-0.0403 -0.1479,0 -0.30924,0.073 -0.16135,0.073 -0.30925,0.18631 v 1.60191 h -0.3611 v -2.98869 h 0.3611 v 1.08138 q 0.16903,-0.14021 0.34958,-0.21896 0.18055,-0.0788 0.37071,-0.0788 0.34765,0 0.53012,0.20936 0.18248,0.20936 0.18248,0.60311 z"
         style="stroke-width:0.09834256"
         id="path913" />
      <path
         d="m 109.99116,276.2426 q -0.1018,0.0269 -0.22281,0.0442 -0.11909,0.0173 -0.2132,0.0173 -0.32845,0 -0.4994,-0.17671 -0.17095,-0.17671 -0.17095,-0.56662 v -1.14093 h -0.24393 v -0.30348 h 0.24393 v -0.61656 h 0.3611 v 0.61656 h 0.74526 v 0.30348 h -0.74526 v 0.97766 q 0,0.16903 0.008,0.26507 0.008,0.0941 0.0538,0.1767 0.0422,0.0768 0.11524,0.11333 0.0749,0.0346 0.22665,0.0346 0.0884,0 0.18439,-0.025 0.096,-0.0269 0.1383,-0.0442 h 0.0192 z"
         style="stroke-width:0.09834256"
         id="path915" />
    </g>
    <g
       aria-label="平坦な部分があると、左右どちらに絞り込むか
正確な判定ができないケースが出てくる"
       style="font-style:normal;font-variant:normal;font-weight:normal;font-stretch:normal;font-size:4.45648766px;line-height:1.25;font-family:sans-serif;-inkscape-font-specification:'sans-serif, Normal';font-variant-ligatures:normal;font-variant-caps:normal;font-variant-numeric:normal;font-feature-settings:normal;text-align:start;letter-spacing:0px;word-spacing:0px;writing-mode:lr-tb;text-anchor:start;fill:#000000;fill-opacity:1;stroke:none;stroke-width:0.11141329"
       id="text868">
      <path
         d="m 37.725512,284.47823 q 0.226306,-0.47002 0.38298,-0.97486 l 0.400387,0.13927 q 0.139266,0.0696 -0.03482,0.10444 -0.139265,0.43521 -0.365571,0.88782 z m -0.800775,0.6441 h -1.705999 v -0.33076 h 1.705999 v -1.54932 h -1.497101 v -0.33076 h 3.324957 v 0.33076 H 37.2729 v 1.54932 h 1.723408 v 0.33076 H 37.2729 v 1.41006 h -0.348163 z m -0.957448,-1.60155 q 0.365571,0.48743 0.47002,0.87041 l -0.38298,0.17408 q -0.191489,-0.53966 -0.435203,-0.87041 z"
         style="stroke-width:0.11141329"
         id="path918" />
      <path
         d="m 41.120103,285.54012 -1.375245,0.38298 q -0.01741,0.12186 -0.08704,0.0522 l -0.08704,-0.38298 0.626693,-0.13927 v -1.41006 h -0.522244 v -0.33075 h 0.522244 v -0.94004 h 0.330755 q 0.139266,0.0174 0.01741,0.10445 v 0.83559 h 0.522245 v 0.33075 h -0.522245 v 1.32302 l 0.57447,-0.15667 z m 1.723407,-1.51451 v -0.81818 h -1.183755 v 0.81818 z m 0,0.33076 h -1.183755 v 0.81818 h 1.183755 z m 0,1.32302 v -0.17408 h -1.183755 v 0.2263 h -0.348163 v -2.85493 h 1.880081 v 2.80271 z m 0.678918,0.74855 h -2.750489 v -0.33076 h 2.750489 z"
         style="stroke-width:0.11141329"
         id="path920" />
      <path
         d="m 46.882202,284.26933 q 0.19149,0.0348 0.03482,0.13926 v 1.00968 q 0.435204,0.13926 0.905224,0.38298 l -0.208898,0.33075 q -0.382979,-0.2263 -0.696326,-0.33075 -0.05222,0.36557 -0.226306,0.53965 -0.208898,0.2089 -0.574469,0.2089 -0.487428,0 -0.678918,-0.19149 -0.174082,-0.17408 -0.174082,-0.45261 0,-0.22631 0.174082,-0.40039 0.226306,-0.22631 0.66151,-0.22631 0.295938,0 0.47002,0.0522 v -1.0619 z m -1.862673,-0.4178 q -0.27853,0.0348 -0.696326,0.0348 l -0.05222,-0.36557 q 0.435203,0 0.870407,-0.0348 0.08704,-0.31335 0.208898,-0.83559 l 0.313347,0.10445 q 0.174082,0.0696 0,0.13926 l -0.156673,0.55707 q 0.295938,-0.0348 0.609285,-0.12186 l 0.08704,0.36557 q -0.487429,0.10445 -0.800775,0.12186 -0.278531,0.88781 -0.818184,1.9323 l -0.348163,-0.17408 q 0.539653,-0.95745 0.783367,-1.72341 z m 1.671183,-0.52224 q 0.487428,0.15667 1.166347,0.41779 l -0.156674,0.36558 q -0.731142,-0.31335 -1.148938,-0.43521 z m -0.121857,2.33269 q -0.208898,-0.0696 -0.47002,-0.0696 -0.278531,0 -0.38298,0.10445 -0.08704,0.087 -0.08704,0.2089 0,0.12185 0.06963,0.19148 0.104449,0.10445 0.365572,0.10445 0.243714,0 0.348163,-0.10445 0.156673,-0.15667 0.156673,-0.4352 z"
         style="stroke-width:0.11141329"
         id="path922" />
      <path
         d="m 51.634628,286.06237 -0.06963,-0.38298 h 0.27853 q 0.243714,0 0.19149,-0.40039 -0.06963,-0.48743 -0.435204,-0.853 l 0.313347,-1.16634 h -0.57447 v 3.37718 h -0.348163 v -3.70794 h 1.027082 l 0.03482,-0.0522 0.313347,0.26112 -0.06963,0.0522 -0.382979,1.16635 q 0.522244,0.57447 0.504836,1.02708 -0.01741,0.67892 -0.47002,0.67892 z m -2.802713,-1.20116 h 1.653775 v 1.58414 h -0.348163 v -0.19149 h -0.957449 v 0.27853 h -0.348163 z m 0.348163,0.33075 v 0.73114 h 0.957449 v -0.73114 z m 0.295939,-2.559 h 0.382979 q 0.174082,0.0348 0.01741,0.13927 v 0.38298 h 0.818184 v 0.33075 h -0.243714 l -0.243715,0.73114 h 0.66151 v 0.33076 h -2.384917 v -0.33076 h 0.66151 l -0.208898,-0.73114 h -0.226306 v -0.33075 h 0.765959 z m 0.574469,0.853 h -0.713734 l 0.174081,0.73114 h 0.330755 z"
         style="stroke-width:0.11141329"
         id="path924" />
      <path
         d="m 56.108524,284.39119 -0.06963,1.41006 q -0.03482,0.73114 -0.504836,0.73114 H 55.01181 l -0.05222,-0.38298 h 0.435204 q 0.226306,0 0.243714,-0.29594 l 0.06963,-1.13153 h -0.957448 l -0.01741,0.13927 q -0.121857,0.95744 -1.375245,1.75822 l -0.261122,-0.33076 q 1.13153,-0.6441 1.253387,-1.35783 l 0.03482,-0.2089 h -0.66151 v -0.33075 z m -1.566734,-1.37525 q -0.417796,0.90523 -1.340428,1.65378 l -0.27853,-0.33076 q 0.905224,-0.62669 1.323019,-1.61896 l 0.330755,0.2089 q 0.104449,0.0696 -0.03482,0.087 z m 2.158611,1.65378 q -0.957448,-0.55706 -1.41006,-1.82786 l 0.330755,-0.13927 q 0.417795,1.11413 1.340428,1.60156 z"
         style="stroke-width:0.11141329"
         id="path926" />
      <path
         d="m 60.356114,283.45115 q 0.713734,0.73114 0.974856,1.75822 l -0.382979,0.15667 q -0.313347,-1.13153 -0.905224,-1.68859 z m -0.522245,1.39265 q 0,1.00967 -0.295939,1.30561 -0.174081,0.17408 -0.400387,0.17408 -0.330755,0 -0.66151,-0.38298 l 0.226306,-0.31335 q 0.27853,0.27854 0.417796,0.27854 0.08704,0 0.156673,-0.0696 0.19149,-0.19149 0.19149,-1.06189 0,-0.48743 -0.104449,-0.59188 -0.05222,-0.0522 -0.208898,-0.0522 -0.156673,0 -0.435204,0.0348 -0.365571,1.2882 -0.870408,2.21084 l -0.400387,-0.13927 q 0.504836,-0.78337 0.887816,-2.03675 -0.38298,0.0522 -0.748551,0.087 l -0.03482,-0.38298 q 0.313347,0 0.870408,-0.0522 0.156673,-0.53965 0.261122,-1.09671 l 0.365571,0.12186 q 0.208898,0.087 -0.01741,0.15667 -0.104449,0.36557 -0.208898,0.78337 0.208898,-0.0348 0.435204,-0.0348 0.243714,0 0.365571,0.12186 0.208898,0.2089 0.208898,0.94004 z m 0.974857,-2.29788 q 0.313347,0.17408 0.696326,0.48743 l -0.208898,0.2089 q -0.382979,-0.29594 -0.696326,-0.48743 z m 0.121857,1.11412 q -0.400388,-0.33075 -0.678918,-0.50483 l 0.208898,-0.2089 q 0.313346,0.17408 0.696326,0.48743 z"
         style="stroke-width:0.11141329"
         id="path928" />
      <path
         d="m 64.1685,286.25386 q 0.713734,-0.0696 0.957448,-0.31335 0.19149,-0.19149 0.19149,-0.53965 0,-0.38298 -0.19149,-0.57447 -0.226306,-0.22631 -0.626693,-0.26112 -0.278531,0.90522 -0.626694,1.27079 l 0.104449,0.22631 -0.330755,0.24371 -0.08704,-0.19149 q -0.452612,0.38298 -0.765959,0.38298 -0.208897,0 -0.382979,-0.17408 -0.19149,-0.19149 -0.19149,-0.52224 0,-0.59188 0.400388,-0.99227 0.243714,-0.24371 0.504836,-0.38298 l 0.03482,-0.66151 -0.731143,0.0348 -0.06963,-0.38298 0.818183,-0.0174 q 0.01741,-0.40039 0.05222,-0.76596 h 0.330755 q 0.174082,0.0348 0.03482,0.13927 -0.03482,0.31334 -0.05222,0.60928 0.835592,-0.0522 1.427469,-0.15667 l 0.06963,0.38298 q -0.731142,0.087 -1.514509,0.12186 l -0.03482,0.55706 q 0.243714,-0.087 0.678918,-0.10445 l 0.05222,-0.27853 0.330755,0.0522 q 0.156673,0.0348 0.03482,0.13927 l -0.01741,0.12185 q 0.539653,0.0522 0.835592,0.34817 0.330755,0.33075 0.330755,0.853 0,0.48743 -0.295939,0.78336 -0.313347,0.31335 -1.044489,0.43521 z m -0.992265,-1.46229 q -0.139265,0.0696 -0.313347,0.24372 -0.313347,0.31334 -0.313347,0.81818 0,0.13927 0.104449,0.24371 0.03482,0.0348 0.139265,0.0348 0.261123,0 0.591878,-0.33075 -0.174082,-0.52225 -0.208898,-1.00968 z m 0.348163,-0.17408 q 0.01741,0.45261 0.174081,0.87041 0.278531,-0.38298 0.400388,-0.95745 -0.313347,0 -0.574469,0.087 z"
         style="stroke-width:0.11141329"
         id="path930" />
      <path
         d="m 68.868701,286.14941 q 0.278531,-0.0348 0.470021,-0.22631 0.208898,-0.20889 0.208898,-0.55706 0,-0.38298 -0.226306,-0.60928 -0.226307,-0.22631 -0.713735,-0.22631 -0.574469,0 -0.887816,0.22631 -0.295938,0.20889 -0.765959,0.74855 l -0.295938,-0.26112 q 1.253387,-1.25339 1.897489,-2.08898 -0.574469,0.0696 -1.148939,0.12185 l -0.121857,-0.40038 q 0.853,0 1.51451,-0.087 l 0.156673,-0.0696 0.19149,0.19149 q 0.19149,0.17408 -0.08704,0.22631 -0.522244,0.59188 -1.044489,1.16635 0.365571,-0.087 0.609285,-0.087 0.66151,0 0.974857,0.31335 0.313347,0.31335 0.313347,0.80078 0,0.50483 -0.278531,0.78336 -0.417795,0.4178 -1.061897,0.4178 -0.609286,0 -0.887816,-0.27853 -0.226306,-0.22631 -0.226306,-0.53965 0,-0.2089 0.156673,-0.36558 0.174082,-0.17408 0.400388,-0.17408 0.313347,0 0.522245,0.2089 0.243714,0.24371 0.330754,0.76596 z m -0.348163,0.0522 q -0.05222,-0.45261 -0.208897,-0.60928 -0.121858,-0.12186 -0.243715,-0.12186 -0.139265,0 -0.208898,0.0696 -0.08704,0.087 -0.08704,0.19149 0,0.15668 0.139265,0.29594 0.174082,0.17408 0.452612,0.17408 0.06963,0 0.156673,0 z"
         style="stroke-width:0.11141329"
         id="path932" />
      <path
         d="m 72.106618,282.75482 h 0.365572 q 0.191489,0.0348 0.03482,0.13926 l 0.03482,0.8356 q 0.01741,0.36557 0.121857,0.59187 0.487429,-0.20889 1.305612,-0.4352 l 0.174081,0.45261 q -1.653774,0.29594 -2.210835,0.853 -0.19149,0.19149 -0.19149,0.40039 0,0.15667 0.121857,0.27853 0.121857,0.12186 0.504837,0.12186 h 1.671182 v 0.38298 h -1.688591 q -0.574469,0 -0.800775,-0.22631 -0.226306,-0.22631 -0.226306,-0.52225 0,-0.38297 0.278531,-0.66151 0.208898,-0.20889 0.696326,-0.48742 -0.104449,-0.26113 -0.121857,-0.57447 z"
         style="stroke-width:0.11141329"
         id="path934" />
      <path
         d="m 76.284577,286.65425 q -0.417795,-0.47002 -0.870407,-0.76596 l 0.261122,-0.34817 q 0.557061,0.33076 0.922632,0.74855 z"
         style="stroke-width:0.11141329"
         id="path936" />
      <path
         d="m 83.491552,283.3467 v 0.38298 h -2.054163 q -0.01741,0.19149 -0.208898,0.74855 h 1.949714 v 0.38298 h -1.009673 v 1.16634 h 1.357836 v 0.38298 h -3.11606 v -0.38298 h 1.357836 v -1.16634 h -0.678918 q -0.365571,0.69632 -1.061897,1.27079 l -0.261123,-0.34816 q 1.027082,-0.83559 1.270796,-2.05416 h -1.183755 v -0.38298 h 1.253387 q 0.03482,-0.27853 0.08704,-0.67892 l 0.452612,0.10445 q 0.06963,0.0522 -0.06963,0.10445 -0.03482,0.2263 -0.06963,0.47002 z"
         style="stroke-width:0.11141329"
         id="path938" />
      <path
         d="m 85.998324,282.87668 q -0.06963,0.29593 -0.139265,0.48742 h 2.141203 v 0.33076 h -2.228244 q -0.156673,0.47002 -0.330755,0.76596 h 2.141203 v 1.9323 h -0.348163 v -0.19149 h -1.723407 v 0.26113 h -0.348163 v -1.60155 q -0.348164,0.48742 -0.853,0.80077 l -0.243714,-0.34816 q 0.94004,-0.50484 1.32302,-1.61896 h -1.201163 v -0.33076 h 1.288203 q 0.121857,-0.40038 0.156674,-0.69632 l 0.365571,0.0696 q 0.174082,0.0348 0,0.13927 z m 1.235979,1.91489 h -1.723407 v 1.07931 h 1.723407 z"
         style="stroke-width:0.11141329"
         id="path940" />
      <path
         d="m 91.969323,284.33896 q -1.653775,0.29594 -2.210836,0.853 -0.191489,0.19149 -0.191489,0.40039 0,0.15667 0.121857,0.27853 0.121857,0.12186 0.504836,0.12186 h 1.671183 v 0.38298 h -1.688591 q -0.574469,0 -0.800775,-0.22631 -0.226306,-0.22631 -0.226306,-0.52225 0,-0.38297 0.27853,-0.66151 0.208898,-0.20889 0.696327,-0.48742 -0.104449,-0.26113 -0.121857,-0.57447 l -0.06963,-1.14894 h 0.365571 q 0.19149,0.0348 0.03482,0.13926 l 0.03482,0.8356 q 0.01741,0.36557 0.121857,0.59187 0.487428,-0.20889 1.305611,-0.4352 z m -0.452612,-1.35783 q 0.400388,0.24371 0.678918,0.4352 l -0.174081,0.22631 q -0.313347,-0.2089 -0.678919,-0.43521 z m 0.382979,-0.34817 q 0.38298,0.24372 0.678918,0.43521 l -0.174081,0.2263 q -0.365571,-0.24371 -0.678918,-0.4352 z"
         style="stroke-width:0.11141329"
         id="path942" />
      <path
         d="m 94.580548,286.11459 q 1.201163,0.0348 1.497102,-0.26112 0.156673,-0.15667 0.156673,-0.40039 0,-0.20889 -0.174082,-0.38298 -0.156673,-0.15667 -0.504836,-0.15667 -0.452612,0 -0.800775,0.17408 -0.208898,0.10445 -0.696326,0.50484 l -0.313347,-0.24372 q 0.104449,-0.10444 0.191489,-0.2263 0.19149,-0.60929 0.313347,-1.21857 -0.47002,0.0522 -0.852999,0.0522 l -0.05222,-0.34816 q 0.400388,0 0.974857,-0.0522 0.08704,-0.38298 0.121857,-0.81818 l 0.330755,0.087 q 0.208898,0.0522 0.03482,0.13927 -0.05222,0.27853 -0.121857,0.55706 0.696326,-0.0696 1.096714,-0.15668 l 0.06963,0.36558 q -0.696326,0.087 -1.235979,0.13926 -0.121857,0.52225 -0.243714,1.02708 0.626694,-0.31334 1.13153,-0.31334 0.591878,0 0.870408,0.27853 0.243714,0.24371 0.243714,0.6441 0,0.38298 -0.243714,0.62669 -0.382979,0.38298 -1.671183,0.36557 z"
         style="stroke-width:0.11141329"
         id="path944" />
      <path
         d="m 98.932585,286.07978 h 0.417796 q 0.870409,0 1.096709,-0.22631 0.19149,-0.19149 0.19149,-0.4352 0,-0.2089 -0.17408,-0.38298 -0.15667,-0.15668 -0.522242,-0.15668 -0.765959,0 -1.392652,0.74855 l -0.348164,-0.0348 0.19149,-1.86267 0.365571,0.0696 q 0.174082,0.0696 0,0.13926 l -0.121857,1.13153 q 0.609286,-0.52224 1.392654,-0.52224 0.47002,0 0.74855,0.27853 0.22631,0.22631 0.22631,0.59188 0,0.40038 -0.29594,0.69632 -0.34817,0.34817 -1.323023,0.34817 H 99.07185 Z m -0.208898,-3.32496 q 0.487428,0.12186 1.323023,0.41779 l -0.174085,0.34817 q -0.626693,-0.26112 -1.305611,-0.45261 z"
         style="stroke-width:0.11141329"
         id="path946" />
      <path
         d="m 104.78172,286.02755 q -0.81818,0 -1.35783,-0.52224 l 0.2263,-0.29594 q 0.47002,0.45261 1.13153,0.4352 h 0.95745 v 0.38298 z m -2.48936,0.33076 q -0.0522,-0.90523 -0.0522,-1.54933 0,-0.78337 0.19149,-1.86267 l 0.34817,0.087 q 0.19149,0.0348 0.0174,0.15667 -0.17408,1.00968 -0.17408,1.61896 0,0.67892 0.0696,1.51451 z m 3.22051,-2.57641 q -0.74856,-0.0174 -1.94972,0.10445 v -0.36557 q 1.25339,-0.12186 1.94972,-0.10445 z"
         style="stroke-width:0.11141329"
         id="path948" />
      <path
         d="m 108.85523,284.60008 q 0.2089,0.57447 0.34817,0.74855 0.19149,-0.31334 0.36557,-0.76595 l 0.27853,0.15667 q 0.12186,0.087 -0.0348,0.12186 -0.12186,0.36557 -0.38298,0.73114 0.29594,0.31335 0.97486,0.57447 l -0.17408,0.36557 q -0.59188,-0.2089 -1.02708,-0.67892 -0.43521,0.4352 -1.09672,0.76596 l -0.17408,-0.34816 q 0.6441,-0.26113 1.04449,-0.66151 -0.29594,-0.47002 -0.40039,-0.83559 z m -1.88008,0.53966 q 0.0696,0.0174 -0.0522,0.10445 -0.0696,0.48742 -0.19149,0.99226 l -0.34816,-0.15667 q 0.12185,-0.4178 0.20889,-1.00968 z m 3.18569,-0.45262 q -0.41779,-0.24371 -0.76595,-0.74855 l 0.31334,-0.19149 q 0.2089,0.29594 0.66151,0.59188 z m -1.98452,-0.24371 q 0.36557,-0.31335 0.57446,-0.67892 l 0.27853,0.2089 q 0.12186,0.087 -0.0522,0.10445 -0.2089,0.36557 -0.59188,0.67892 z m -1.04449,2.17602 v -1.82786 l -0.60929,0.0522 q -0.0696,0.17408 -0.12186,0.0174 l -0.0696,-0.34817 h 0.38298 l 0.31335,-0.41779 q -0.33076,-0.27853 -0.6441,-0.50484 l 0.20889,-0.29594 0.15668,0.12186 q 0.26112,-0.34816 0.52224,-0.80078 l 0.27853,0.19149 q 0.087,0.10445 -0.0348,0.087 -0.26113,0.36558 -0.52225,0.69633 l 0.26112,0.2089 0.43521,-0.67892 0.27853,0.17408 q 0.13926,0.087 -0.0522,0.10445 l -0.83559,1.09671 0.66151,-0.0348 q -0.087,-0.15667 -0.17408,-0.33076 l 0.29594,-0.10445 q 0.19149,0.26113 0.38298,0.78337 l -0.33076,0.10445 q -0.0348,-0.087 -0.0696,-0.19149 l -0.36557,0.0348 v 1.86267 z m 0.69632,-0.60929 q -0.0174,-0.38298 -0.15667,-0.8704 l 0.31335,-0.087 q 0.15667,0.47002 0.19149,0.853 z m 0.27853,-2.71567 h 0.94004 v -0.66151 h 0.33076 q 0.13926,0.0174 0.0174,0.10445 v 0.55706 h 0.99226 v 0.33076 h -2.28047 z"
         style="stroke-width:0.11141329"
         id="path950" />
      <path
         d="m 113.64248,284.61749 q 0,-1.18375 -0.0696,-1.82785 h 0.34816 q 0.19149,0.0174 0.0348,0.13926 0.0522,0.55706 0.0522,1.706 0,1.30561 -1.23598,1.96712 l -0.29594,-0.29594 q 1.16635,-0.55706 1.16635,-1.68859 z m -1.18376,0.57447 q -0.15667,0.12186 -0.34816,0.12186 -0.12186,0 -0.22631,-0.10445 -0.12185,-0.12186 -0.12185,-1.04449 0,-0.69633 0.0696,-1.2708 h 0.38298 q 0.13926,0.0522 0,0.12186 -0.087,0.4178 -0.087,1.14894 0,0.74855 0.0696,0.74855 0.0522,0 0.13927,-0.0696 0.12185,-0.10445 0.40038,-0.47002 l 0.26113,0.26112 q -0.29594,0.36557 -0.53966,0.55706 z"
         style="stroke-width:0.11141329"
         id="path952" />
      <path
         d="m 118.95197,285.78384 q -0.853,-0.69633 -1.04449,-1.56674 -0.27853,1.00968 -1.13153,1.63637 l -0.24372,-0.40039 q 1.20117,-0.83559 1.18376,-2.22824 h -0.80078 v -0.38298 h 1.14894 q -0.087,1.77563 1.16635,2.559 z m -3.60349,0.40039 q 0.31335,-0.13927 0.69633,-0.36558 v -1.0793 h -0.66151 v -0.38298 h 1.00967 v 1.46228 q 0.2089,0.26113 0.853,0.26113 h 2.07157 l -0.0696,0.38298 h -2.00194 q -0.71374,0 -1.0619,-0.4178 -0.33075,0.31335 -0.62669,0.52225 z m 0.55706,-3.42941 q 0.33075,0.2089 0.67892,0.6441 l -0.31335,0.31335 q -0.31335,-0.40039 -0.66151,-0.66151 z"
         style="stroke-width:0.11141329"
         id="path954" />
      <path
         d="m 120.72759,285.71421 q -0.13926,0.0696 -0.24371,0.0696 -0.2089,0 -0.36557,-0.15668 -0.19149,-0.19148 -0.19149,-0.53965 0,-0.41779 0.2263,-0.6441 0.19149,-0.19149 0.48743,-0.19149 0.15668,0 0.27853,0.0522 v -0.50484 l -0.87041,0.087 -0.0696,-0.36557 0.94004,-0.0696 v -0.74856 h 0.33076 q 0.13926,0.0522 0.0174,0.12186 v 0.59188 l 0.78336,-0.0696 0.0522,0.34816 -0.83559,0.0696 v 0.80078 q 0.0696,0.10445 0.0696,0.2263 0,0.33076 -0.26112,0.66151 l 0.0348,0.45262 q 0.0174,0.26112 0.4178,0.26112 h 0.88781 q 0.36558,0 0.36558,-0.34817 v -0.67891 l 0.34816,0.0696 v 0.67892 q 0,0.60928 -0.6441,0.60928 h -0.95745 q -0.69633,0 -0.76596,-0.50483 z m 2.80272,-1.16635 q -0.53966,-0.52225 -0.97486,-0.81818 l 0.2089,-0.31335 q 0.62669,0.4352 0.99226,0.81818 z m -2.88976,0 q -0.15667,0 -0.26112,0.10445 -0.12186,0.12186 -0.12186,0.4352 0,0.2089 0.10445,0.31335 0.0522,0.0522 0.15668,0.0522 0.13926,0 0.24371,-0.10445 0.17408,-0.17408 0.17408,-0.41779 0,-0.22631 -0.0522,-0.27853 -0.10445,-0.10445 -0.24372,-0.10445 z"
         style="stroke-width:0.11141329"
         id="path956" />
      <path
         d="m 124.29627,286.23645 q 0.50483,-0.78337 0.88781,-2.03675 -0.38298,0.0522 -0.74855,0.087 l -0.0348,-0.38298 q 0.31334,0 0.8704,-0.0522 0.15668,-0.53965 0.26113,-1.09671 l 0.36557,0.12186 q 0.20889,0.087 -0.0174,0.15667 -0.10445,0.36557 -0.2089,0.78337 0.2089,-0.0348 0.4352,-0.0348 0.24372,0 0.36558,0.12186 0.20889,0.2089 0.20889,0.94004 0,1.00967 -0.29593,1.30561 -0.17409,0.17408 -0.40039,0.17408 -0.33076,0 -0.66151,-0.38298 l 0.2263,-0.31335 q 0.27853,0.27854 0.4178,0.27854 0.087,0 0.15667,-0.0696 0.19149,-0.19149 0.19149,-1.06189 0,-0.48743 -0.10445,-0.59188 -0.0522,-0.0522 -0.20889,-0.0522 -0.15668,0 -0.43521,0.0348 -0.36557,1.2882 -0.87041,2.21084 z m 3.49904,-0.87041 q -0.31335,-1.13153 -0.90523,-1.68859 l 0.31335,-0.2263 q 0.71373,0.73114 0.97486,1.75822 z"
         style="stroke-width:0.11141329"
         id="path958" />
      <path
         d="m 35.323187,288.90762 h 3.499039 v 0.33075 h -1.444877 v 1.07931 h 1.13153 v 0.33075 h -1.13153 v 1.23598 h 1.566734 v 0.33076 H 35.20133 v -0.33076 h 0.644102 v -1.94971 h 0.382979 q 0.139265,0.0174 0.01741,0.10445 v 1.84526 h 0.731143 v -2.64604 h -1.653775 z"
         style="stroke-width:0.11141329"
         id="path960" />
      <path
         d="m 42.599796,289.95211 h 0.818183 v 0.27853 h -0.731142 v 0.40038 h 0.591877 v 0.27854 h -0.591877 v 0.41779 h 0.591877 v 0.27853 h -0.591877 v 0.43521 h 0.870407 v 0.27853 h -1.758223 v 0.17408 h -0.295939 v -1.93231 q -0.139265,0.19149 -0.348163,0.34817 l -0.121857,-0.33076 q 0.66151,-0.59188 0.852999,-1.23598 h -0.400387 v 0.40039 h -0.295939 v -0.67892 h 0.765959 q 0.06963,-0.27853 0.121857,-0.59188 l 0.348163,0.087 q 0.05222,0.0522 -0.03482,0.10445 -0.05222,0.2089 -0.104449,0.40039 h 1.235979 v 0.60929 h -0.295939 v -0.33076 h -1.009673 q -0.104449,0.36557 -0.27853,0.60929 h 0.365571 l 0.226306,-0.52225 0.330755,0.0696 q 0.08704,0.0348 -0.03482,0.0871 z m -2.941978,-0.80078 v -0.33075 h 1.479693 v 0.33075 h -0.609286 q -0.03482,0.53965 -0.226306,0.99227 h 0.678918 v 2.07157 h -0.295938 v -0.27853 h -0.452612 v 0.45261 h -0.295939 v -1.56674 q -0.104449,0.17409 -0.226306,0.31335 l -0.226306,-0.29594 q 0.609285,-0.67892 0.713734,-1.68859 z m 2.141203,1.75823 v 0.41779 h 0.591877 v -0.41779 z m 0,-0.67892 v 0.40038 h 0.591877 v -0.40038 z m 0,1.37524 v 0.43521 h 0.591877 v -0.43521 z m -1.566734,-1.18375 v 1.23598 h 0.452612 v -1.23598 z"
         style="stroke-width:0.11141329"
         id="path962" />
      <path
         d="m 46.882202,290.161 q 0.19149,0.0348 0.03482,0.13927 v 1.00967 q 0.435204,0.13927 0.905224,0.38298 l -0.208898,0.33076 q -0.382979,-0.22631 -0.696326,-0.33076 -0.05222,0.36557 -0.226306,0.53965 -0.208898,0.2089 -0.574469,0.2089 -0.487428,0 -0.678918,-0.19149 -0.174082,-0.17408 -0.174082,-0.45261 0,-0.2263 0.174082,-0.40039 0.226306,-0.2263 0.66151,-0.2263 0.295938,0 0.47002,0.0522 v -1.0619 z m -1.862673,-0.41779 q -0.27853,0.0348 -0.696326,0.0348 l -0.05222,-0.36558 q 0.435203,0 0.870407,-0.0348 0.08704,-0.31335 0.208898,-0.83559 l 0.313347,0.10445 q 0.174082,0.0696 0,0.13926 l -0.156673,0.55706 q 0.295938,-0.0348 0.609285,-0.12186 l 0.08704,0.36558 q -0.487429,0.10444 -0.800775,0.12185 -0.278531,0.88782 -0.818184,1.93231 l -0.348163,-0.17408 q 0.539653,-0.95745 0.783367,-1.72341 z m 1.671183,-0.52225 q 0.487428,0.15668 1.166347,0.4178 l -0.156674,0.36557 q -0.731142,-0.31335 -1.148938,-0.4352 z m -0.121857,2.3327 q -0.208898,-0.0696 -0.47002,-0.0696 -0.278531,0 -0.38298,0.10445 -0.08704,0.087 -0.08704,0.2089 0,0.12186 0.06963,0.19149 0.104449,0.10445 0.365572,0.10445 0.243714,0 0.348163,-0.10445 0.156673,-0.15667 0.156673,-0.4352 z"
         style="stroke-width:0.11141329"
         id="path964" />
      <path
         d="m 50.120119,289.69098 q 0.156673,-0.34816 0.27853,-0.74855 l 0.348163,0.12186 q 0.121857,0.0522 -0.03482,0.10445 -0.156673,0.50484 -0.261122,0.66151 z m -1.201163,0.10445 q -0.156673,-0.40038 -0.313347,-0.6441 l 0.313347,-0.15667 q 0.19149,0.26112 0.330755,0.66151 z m 2.524182,-0.74855 q 0.139266,0.0174 0.01741,0.10445 v 2.40233 h -0.348164 v -2.50678 z m 0.783367,-0.31334 q 0.139266,0.0174 0.01741,0.10444 v 3.35978 q 0,0.24371 -0.226306,0.24371 h -0.470021 l -0.06963,-0.33075 h 0.348163 q 0.06963,0 0.06963,-0.0696 v -3.30755 z m -1.514509,1.60155 h -0.835592 v 0.55706 h 0.992265 v 0.33075 h -0.992265 v 1.23598 H 49.528241 V 291.2229 H 48.50116 v -0.33075 h 1.027081 v -0.55706 h -0.852999 v -0.33076 h 0.852999 v -1.35783 h 0.330755 q 0.139266,0.0174 0.01741,0.10444 v 1.25339 h 0.835592 z"
         style="stroke-width:0.11141329"
         id="path966" />
      <path
         d="m 52.992464,292.21517 q 0.853,-0.52225 0.835592,-1.67119 l 0.400387,0.0696 q 0.05222,0.0522 -0.03482,0.10445 l -0.08704,0.62669 q 0.261122,0.31335 0.678918,0.53965 v -1.68859 H 53.60175 v -0.33075 h 2.628631 v 0.33075 h -1.096714 v 0.6441 h 1.218571 v 0.33076 h -1.218571 v 0.83559 q 0.261123,0.0696 0.522245,0.0696 h 1.148938 l -0.06963,0.33076 h -1.079306 q -1.009673,0 -1.653775,-0.73115 -0.261122,0.57447 -0.731142,0.87041 z m 2.123795,-3.1857 h 1.60155 v 0.92264 h -0.348163 v -0.59188 h -2.889753 v 0.62669 h -0.348164 v -0.95745 h 1.584143 v -0.50483 h 0.382979 q 0.174081,0.0348 0.01741,0.13926 z"
         style="stroke-width:0.11141329"
         id="path968" />
      <path
         d="m 60.356114,289.34282 q 0.713734,0.73114 0.974856,1.75822 l -0.382979,0.15668 q -0.313347,-1.13153 -0.905224,-1.68859 z m -0.522245,1.39265 q 0,1.00968 -0.295939,1.30562 -0.174081,0.17408 -0.400387,0.17408 -0.330755,0 -0.66151,-0.38298 l 0.226306,-0.31335 q 0.27853,0.27853 0.417796,0.27853 0.08704,0 0.156673,-0.0696 0.19149,-0.19149 0.19149,-1.0619 0,-0.48743 -0.104449,-0.59188 -0.05222,-0.0522 -0.208898,-0.0522 -0.156673,0 -0.435204,0.0348 -0.365571,1.2882 -0.870408,2.21083 l -0.400387,-0.13926 q 0.504836,-0.78337 0.887816,-2.03676 -0.38298,0.0522 -0.748551,0.087 l -0.03482,-0.38298 q 0.313347,0 0.870408,-0.0522 0.156673,-0.53965 0.261122,-1.09671 l 0.365571,0.12185 q 0.208898,0.087 -0.01741,0.15668 -0.104449,0.36557 -0.208898,0.78336 0.208898,-0.0348 0.435204,-0.0348 0.243714,0 0.365571,0.12185 0.208898,0.2089 0.208898,0.94004 z m 0.974857,-2.29787 q 0.313347,0.17408 0.696326,0.48743 l -0.208898,0.20889 q -0.382979,-0.29594 -0.696326,-0.48742 z m 0.121857,1.11412 q -0.400388,-0.33076 -0.678918,-0.50484 l 0.208898,-0.2089 q 0.313346,0.17409 0.696326,0.48743 z"
         style="stroke-width:0.11141329"
         id="path970" />
      <path
         d="m 65.543744,289.39505 q -0.609286,0 -0.957449,0.12185 -0.382979,0.13927 -0.713734,0.47002 -0.330755,0.33076 -0.330755,0.853 0,0.4178 0.261122,0.67892 0.348164,0.34816 1.340428,0.38298 l -0.139265,0.38298 q -1.027081,-0.0522 -1.427469,-0.45261 -0.400387,-0.40039 -0.400387,-0.97486 0,-0.81818 0.644102,-1.2882 -0.818184,0.12185 -1.671183,0.24371 l -0.104449,-0.40039 q 1.705999,-0.12185 3.429406,-0.41779 z m -0.38298,1.35783 q -0.382979,-0.27853 -0.661509,-0.4352 l 0.174081,-0.2089 q 0.261122,0.15667 0.66151,0.4352 z m 0.348164,-0.41779 q -0.417796,-0.29594 -0.66151,-0.43521 l 0.174081,-0.2089 q 0.243714,0.13927 0.66151,0.43521 z"
         style="stroke-width:0.11141329"
         id="path972" />
      <path
         d="m 68.572763,289.55172 q 0.06963,0.2089 0.208898,0.4352 0.557061,-0.087 1.096713,-0.24371 l 0.156674,0.36557 q -0.452612,0.10445 -1.061898,0.19149 0.261123,0.34816 0.678918,0.66151 l -0.295938,0.29594 q -0.626694,-0.13927 -0.992265,-0.13927 -0.696326,0 -0.905224,0.2089 -0.121857,0.12186 -0.121857,0.26112 0,0.17408 0.104449,0.27853 0.139265,0.13927 0.783367,0.13927 h 1.061897 l -0.06963,0.38298 h -1.061898 q -0.696326,0 -0.974857,-0.27853 -0.208897,-0.2089 -0.208897,-0.53965 0,-0.26113 0.191489,-0.45262 0.295939,-0.29594 1.218571,-0.29594 0.313347,0 0.626694,0.0522 -0.243714,-0.26112 -0.435204,-0.50484 -0.818183,0.10445 -1.79304,0.10445 l -0.05223,-0.36557 q 0.887816,0.0174 1.671183,-0.0696 -0.121857,-0.22631 -0.191489,-0.43521 -0.644102,0.0522 -1.340428,0.0522 l -0.03482,-0.34817 q 0.713735,0.0174 1.288204,-0.0348 -0.08704,-0.31335 -0.139265,-0.71374 h 0.382979 q 0.174082,0.0348 0.01741,0.13927 0.03482,0.26112 0.08704,0.52224 0.452612,-0.0522 0.922632,-0.17408 l 0.121857,0.34817 q -0.591877,0.10444 -0.94004,0.15667 z"
         style="stroke-width:0.11141329"
         id="path974" />
      <path
         d="m 73.621128,290.161 q 0.191489,0.0348 0.03482,0.13927 v 1.00967 q 0.435204,0.13927 0.905224,0.38298 l -0.208898,0.33076 q -0.382979,-0.22631 -0.696326,-0.33076 -0.05222,0.36557 -0.226306,0.53965 -0.208898,0.2089 -0.574469,0.2089 -0.487428,0 -0.678918,-0.19149 -0.174082,-0.17408 -0.174082,-0.45261 0,-0.2263 0.174082,-0.40039 0.226306,-0.2263 0.66151,-0.2263 0.295938,0 0.47002,0.0522 v -1.0619 z m -1.862673,-0.41779 q -0.27853,0.0348 -0.696326,0.0348 l -0.05222,-0.36558 q 0.435203,0 0.870407,-0.0348 0.08704,-0.31335 0.208898,-0.83559 l 0.313347,0.10445 q 0.174081,0.0696 0,0.13926 l -0.156673,0.55706 q 0.295938,-0.0348 0.609285,-0.12186 l 0.08704,0.36558 q -0.487429,0.10444 -0.800775,0.12185 -0.278531,0.88782 -0.818184,1.93231 l -0.348163,-0.17408 q 0.539653,-0.95745 0.783367,-1.72341 z m 1.671183,-0.52225 q 0.487428,0.15668 1.166346,0.4178 l -0.156673,0.36557 q -0.731142,-0.31335 -1.148938,-0.4352 z m -0.121857,2.3327 q -0.208898,-0.0696 -0.47002,-0.0696 -0.278531,0 -0.38298,0.10445 -0.08704,0.087 -0.08704,0.2089 0,0.12186 0.06963,0.19149 0.104449,0.10445 0.365571,0.10445 0.243715,0 0.348164,-0.10445 0.156673,-0.15667 0.156673,-0.4352 z"
         style="stroke-width:0.11141329"
         id="path976" />
      <path
         d="m 77.172393,291.25772 q -0.156673,0.40039 -0.330755,0.60928 -0.243714,0.29594 -0.487428,0.29594 -0.435204,0 -0.644102,-0.50483 -0.121857,-0.29594 -0.121857,-1.2708 0,-0.69633 0.06963,-1.41006 l 0.365571,0.087 q 0.208898,0.0522 0.01741,0.17408 -0.06963,0.6441 -0.06963,1.16635 0,0.71373 0.08704,1.00967 0.08704,0.29594 0.261123,0.29594 0.191489,0 0.330755,-0.27853 0.08704,-0.17408 0.174081,-0.4178 z m 1.027081,-2.03676 q 0.783367,0.81819 0.957449,1.98453 l -0.47002,0.12186 q -0.208898,-1.21857 -0.853,-1.89749 z"
         style="stroke-width:0.11141329"
         id="path978" />
      <path
         d="m 79.818431,290.70066 q 0.765959,-0.78337 0.974857,-1.98453 l 0.435203,0.10445 q 0.139266,0.0348 -0.03482,0.13926 -0.104449,0.38298 -0.261122,0.74855 h 2.576407 v 0.38298 h -1.009673 q -0.156674,1.35784 -1.305612,2.3501 l -0.400387,-0.2263 q 1.201162,-0.95745 1.270795,-2.1238 h -1.32302 q -0.226306,0.45261 -0.574469,0.80078 z"
         style="stroke-width:0.11141329"
         id="path980" />
      <path
         d="m 84.170468,290.70066 v -0.38298 h 3.882018 v 0.38298 z"
         style="stroke-width:0.11141329"
         id="path982" />
      <path
         d="m 90.855201,290.54398 q 0.748551,0.57447 1.479693,1.32302 l -0.348163,0.29594 q -0.731142,-0.76596 -1.41006,-1.2882 -0.678918,0.73114 -1.549326,1.30561 l -0.330755,-0.29594 q 1.845264,-1.20116 2.367509,-2.40232 l -1.897489,0.12185 -0.05222,-0.41779 2.019346,-0.087 0.208897,-0.0522 0.278531,0.27853 q 0.121857,0.12186 -0.06963,0.15668 -0.330755,0.57447 -0.696326,1.06189 z"
         style="stroke-width:0.11141329"
         id="path984" />
      <path
         d="m 96.008017,289.34282 q 0.713734,0.73114 0.974857,1.75822 l -0.38298,0.15668 q -0.313347,-1.13153 -0.905224,-1.68859 z m -0.522245,1.39265 q 0,1.00968 -0.295938,1.30562 -0.174082,0.17408 -0.400388,0.17408 -0.330755,0 -0.66151,-0.38298 l 0.226306,-0.31335 q 0.278531,0.27853 0.417796,0.27853 0.08704,0 0.156673,-0.0696 0.19149,-0.19149 0.19149,-1.0619 0,-0.48743 -0.104449,-0.59188 -0.05222,-0.0522 -0.208898,-0.0522 -0.156673,0 -0.435204,0.0348 -0.365571,1.2882 -0.870407,2.21083 l -0.400388,-0.13926 q 0.504837,-0.78337 0.887816,-2.03676 -0.382979,0.0522 -0.748551,0.087 l -0.03482,-0.38298 q 0.313347,0 0.870408,-0.0522 0.156673,-0.53965 0.261122,-1.09671 l 0.365571,0.12185 q 0.208898,0.087 -0.01741,0.15668 -0.104449,0.36557 -0.208898,0.78336 0.208898,-0.0348 0.435204,-0.0348 0.243714,0 0.365571,0.12185 0.208898,0.2089 0.208898,0.94004 z m 0.974857,-2.29787 q 0.313347,0.17408 0.696326,0.48743 l -0.208898,0.20889 q -0.382979,-0.29594 -0.696326,-0.48742 z m 0.121857,1.11412 q -0.400388,-0.33076 -0.678918,-0.50484 l 0.208898,-0.2089 q 0.313347,0.17409 0.696326,0.48743 z"
         style="stroke-width:0.11141329"
         id="path986" />
      <path
         d="m 98.253667,288.97725 q 0.139265,0.0174 0.01741,0.10445 v 0.94004 h 1.027081 v -1.39265 h 0.330755 q 0.139265,0.0174 0.01741,0.10445 v 1.2882 h 1.009671 v -1.02708 h 0.33076 q 0.13926,0.0174 0.0174,0.10445 v 1.41006 h -0.34817 v -0.15668 h -1.009671 v 1.49711 h 1.148941 v -1.0619 h 0.33075 q 0.13927,0.0174 0.0174,0.10445 v 1.47969 h -0.34816 v -0.19149 h -2.698266 v 0.24371 H 97.74883 v -1.65377 h 0.330755 q 0.139266,0.0174 0.01741,0.10445 v 0.97486 h 1.201162 v -1.49711 h -1.027081 v 0.19149 h -0.348163 v -1.56673 z"
         style="stroke-width:0.11141329"
         id="path988" />
      <path
         d="m 105.65213,289.39505 q -0.60928,0 -0.95745,0.12185 -0.38298,0.13927 -0.71373,0.47002 -0.33076,0.33076 -0.33076,0.853 0,0.4178 0.26113,0.67892 0.34816,0.34816 1.34042,0.38298 l -0.13926,0.38298 q -1.02708,-0.0522 -1.42747,-0.45261 -0.40039,-0.40039 -0.40039,-0.97486 0,-0.81818 0.6441,-1.2882 -0.81818,0.12185 -1.67118,0.24371 l -0.10445,-0.40039 q 1.706,-0.12185 3.42941,-0.41779 z"
         style="stroke-width:0.11141329"
         id="path990" />
      <path
         d="m 107.25368,290.52658 q 0,-0.19149 0.19149,-0.36558 1.13153,-1.06189 1.46229,-1.60155 l 0.31334,0.24372 q 0.15668,0.17408 -0.087,0.13926 -0.26112,0.38298 -1.37524,1.42747 -0.0696,0.0696 -0.0696,0.12186 0,0.10445 0.0696,0.15667 0.97486,0.76596 1.56673,1.44488 l -0.31334,0.31335 q -0.60929,-0.71374 -1.4971,-1.4797 -0.26113,-0.2263 -0.26113,-0.40038 z"
         style="stroke-width:0.11141329"
         id="path992" />
      <path
         d="m 113.43358,292.04109 q 0.27853,-0.0348 0.47002,-0.22631 0.2089,-0.2089 0.2089,-0.55706 0,-0.38298 -0.22631,-0.60929 -0.2263,-0.2263 -0.71373,-0.2263 -0.57447,0 -0.88782,0.2263 -0.29594,0.2089 -0.76596,0.74855 l -0.29594,-0.26112 q 1.25339,-1.25339 1.89749,-2.08898 -0.57447,0.0696 -1.14894,0.12186 l -0.12185,-0.40039 q 0.853,0 1.51451,-0.087 l 0.15667,-0.0696 0.19149,0.19149 q 0.19149,0.17408 -0.087,0.2263 -0.52224,0.59188 -1.04449,1.16635 0.36557,-0.087 0.60929,-0.087 0.66151,0 0.97485,0.31335 0.31335,0.31334 0.31335,0.80077 0,0.50484 -0.27853,0.78337 -0.4178,0.41779 -1.0619,0.41779 -0.60928,0 -0.88781,-0.27853 -0.22631,-0.2263 -0.22631,-0.53965 0,-0.2089 0.15667,-0.36557 0.17408,-0.17408 0.40039,-0.17408 0.31335,0 0.52225,0.2089 0.24371,0.24371 0.33075,0.76596 z m -0.34816,0.0522 q -0.0522,-0.45261 -0.2089,-0.60929 -0.12186,-0.12185 -0.24372,-0.12185 -0.13926,0 -0.20889,0.0696 -0.087,0.087 -0.087,0.19149 0,0.15667 0.13926,0.29594 0.17408,0.17408 0.45261,0.17408 0.0696,0 0.15668,0 z"
         style="stroke-width:0.11141329"
         id="path994" />
    </g>
    <g
       style="font-style:normal;font-weight:normal;font-size:10.58333302px;line-height:1.25;font-family:sans-serif;letter-spacing:0px;word-spacing:0px;fill:#000000;fill-opacity:1;stroke:none;stroke-width:0.26458332"
       id="text872" />
  </g>
</svg>
