<?xml version="1.0" encoding="UTF-8" standalone="no"?>
<!-- Created with Inkscape (http://www.inkscape.org/) -->

<svg
   xmlns:dc="http://purl.org/dc/elements/1.1/"
   xmlns:cc="http://creativecommons.org/ns#"
   xmlns:rdf="http://www.w3.org/1999/02/22-rdf-syntax-ns#"
   xmlns:svg="http://www.w3.org/2000/svg"
   xmlns="http://www.w3.org/2000/svg"
   xmlns:sodipodi="http://sodipodi.sourceforge.net/DTD/sodipodi-0.dtd"
   xmlns:inkscape="http://www.inkscape.org/namespaces/inkscape"
   width="600"
   height="300"
   viewBox="0 0 158.75 79.375002"
   version="1.1"
   id="svg8"
   inkscape:version="0.92.4 (5da689c313, 2019-01-14)"
   sodipodi:docname="binary_search02.svg"
   inkscape:export-filename="C:\Users\SHIRASAKI\Documents\codes\notebooks\python_playground\binary_search02.png"
   inkscape:export-xdpi="96"
   inkscape:export-ydpi="96">
  <defs
     id="defs2">
    <marker
       inkscape:stockid="Arrow1Lend"
       orient="auto"
       refY="0.0"
       refX="0.0"
       id="Arrow1Lend"
       style="overflow:visible;"
       inkscape:isstock="true">
      <path
         id="path820"
         d="M 0.0,0.0 L 5.0,-5.0 L -12.5,0.0 L 5.0,5.0 L 0.0,0.0 z "
         style="fill-rule:evenodd;stroke:#000000;stroke-width:1pt;stroke-opacity:1;fill:#000000;fill-opacity:1"
         transform="scale(0.8) rotate(180) translate(12.5,0)" />
    </marker>
    <marker
       inkscape:stockid="Arrow1Lstart"
       orient="auto"
       refY="0.0"
       refX="0.0"
       id="Arrow1Lstart"
       style="overflow:visible"
       inkscape:isstock="true">
      <path
         id="path817"
         d="M 0.0,0.0 L 5.0,-5.0 L -12.5,0.0 L 5.0,5.0 L 0.0,0.0 z "
         style="fill-rule:evenodd;stroke:#000000;stroke-width:1pt;stroke-opacity:1;fill:#000000;fill-opacity:1"
         transform="scale(0.8) translate(12.5,0)" />
    </marker>
    <clipPath
       id="clipPath">
      <rect
         y="220.27081"
         x="10.583333"
         height="50.270832"
         width="134.9375"
         id="rect889"
         style="opacity:0.97000002;fill:none;fill-opacity:1;stroke:#000000;stroke-width:0.5;stroke-linejoin:round;stroke-miterlimit:4;stroke-dasharray:none;stroke-dashoffset:0;stroke-opacity:1" />
    </clipPath>
  </defs>
  <sodipodi:namedview
     id="base"
     pagecolor="#ffffff"
     bordercolor="#666666"
     borderopacity="1.0"
     inkscape:pageopacity="0.0"
     inkscape:pageshadow="2"
     inkscape:zoom="1.4"
     inkscape:cx="400.31478"
     inkscape:cy="103.98348"
     inkscape:document-units="mm"
     inkscape:current-layer="layer1"
     showgrid="true"
     units="px"
     inkscape:snap-text-baseline="false"
     inkscape:snap-grids="true"
     inkscape:window-width="1920"
     inkscape:window-height="1017"
     inkscape:window-x="-8"
     inkscape:window-y="-8"
     inkscape:window-maximized="1">
    <inkscape:grid
       id="grid1248"
       type="xygrid" />
  </sodipodi:namedview>
  <metadata
     id="metadata5">
    <rdf:RDF>
      <cc:Work
         rdf:about="">
        <dc:format>image/svg+xml</dc:format>
        <dc:type
           rdf:resource="http://purl.org/dc/dcmitype/StillImage" />
        <dc:title />
      </cc:Work>
    </rdf:RDF>
  </metadata>
  <g
     inkscape:label="レイヤー 1"
     inkscape:groupmode="layer"
     id="layer1"
     transform="translate(0,-217.62498)">
    <g
       id="g1240"
       transform="translate(-0.14105667,-10.422163)"
       style="stroke-width:0.5;stroke-miterlimit:4;stroke-dasharray:none">
      <path
         inkscape:connector-curvature="0"
         id="path1143"
         d="m 11.22532,281.49835 134.43657,-0.53454"
         style="fill:none;stroke:#000000;stroke-width:0.5;stroke-linecap:butt;stroke-linejoin:miter;stroke-opacity:1;marker-start:url(#Arrow1Lstart);marker-end:url(#Arrow1Lend);stroke-miterlimit:4;stroke-dasharray:none" />
      <g
         aria-label="x"
         style="font-style:italic;font-variant:normal;font-weight:normal;font-stretch:normal;font-size:14.74893284px;line-height:1.25;font-family:serif;-inkscape-font-specification:'serif, Italic';font-variant-ligatures:normal;font-variant-caps:normal;font-variant-numeric:normal;font-feature-settings:normal;text-align:start;letter-spacing:0px;word-spacing:0px;writing-mode:lr-tb;text-anchor:start;fill:#000000;fill-opacity:1;stroke:none;stroke-width:0.5;stroke-miterlimit:4;stroke-dasharray:none"
         id="text1223">
        <path
           d="m 151.46229,277.58647 q 0.35288,0.37448 0.53292,0.74897 0.12963,0.25926 0.4249,1.36111 l 0.63374,-0.95062 q 0.25206,-0.34568 0.61214,-0.65535 0.36008,-0.31687 0.63374,-0.43209 0.17284,-0.072 0.38169,-0.072 0.30967,0 0.48971,0.16564 0.18724,0.16563 0.18724,0.40329 0,0.27366 -0.10802,0.37448 -0.20165,0.18004 -0.4609,0.18004 -0.15124,0 -0.32408,-0.0648 -0.33847,-0.11523 -0.4537,-0.11523 -0.17284,0 -0.41049,0.20165 -0.4465,0.37448 -1.06584,1.44753 l 0.59053,2.47736 q 0.13683,0.56892 0.23045,0.68415 0.0936,0.10802 0.18724,0.10802 0.15124,0 0.35288,-0.16563 0.39609,-0.33128 0.67696,-0.8642 l 0.25205,0.12963 q -0.4537,0.84979 -1.15226,1.41152 -0.39609,0.31687 -0.66975,0.31687 -0.40329,0 -0.64094,-0.4537 -0.15124,-0.28086 -0.62654,-2.41975 -1.12346,1.95164 -1.80041,2.51337 -0.4393,0.36008 -0.84979,0.36008 -0.28807,0 -0.52572,-0.20885 -0.17284,-0.15843 -0.17284,-0.42489 0,-0.23765 0.15843,-0.39609 0.15844,-0.15844 0.38889,-0.15844 0.23045,0 0.48971,0.23046 0.18725,0.16563 0.28807,0.16563 0.0864,0 0.22325,-0.11522 0.33848,-0.27366 0.92181,-1.18107 0.58333,-0.90741 0.76337,-1.3107 -0.4465,-1.74999 -0.48251,-1.85081 -0.16564,-0.46811 -0.4321,-0.66255 -0.26646,-0.19445 -0.78497,-0.19445 -0.16564,0 -0.38169,0.0144 v -0.25926 z"
           style="font-style:italic;font-variant:normal;font-weight:normal;font-stretch:normal;font-size:14.74893284px;font-family:serif;-inkscape-font-specification:'serif, Italic';font-variant-ligatures:normal;font-variant-caps:normal;font-variant-numeric:normal;font-feature-settings:normal;text-align:start;writing-mode:lr-tb;text-anchor:start;stroke-width:0.5;stroke-miterlimit:4;stroke-dasharray:none"
           id="path866" />
      </g>
    </g>
    <path
       id="path862"
       title="exp(-x*x)"
       d=" M 145.520833 270.541642 C 145.520144543 268.147792914 144.822248862 265.755433153 143.484472293 263.529080517 C 142.146695723 261.302727881 140.168676908 259.245563012 137.711250656 257.483827722 C 135.253824405 255.722092432 132.317429905 254.258616134 129.122077455 253.155876175 C 125.926725005 252.053136217 122.474321381 251.313001467 118.992752252 250.927478672 C 115.511183124 250.541955877 112.002868429 250.511780671 108.657167205 250.770570715 C 105.311465981 251.029360758 102.130502048 251.576943185 99.2359485954 252.313171928 C 96.3413951426 253.049400671 93.7346575782 253.973629343 91.4625840074 254.979809497"
       style="opacity:0.97000002;fill:none;fill-opacity:1;stroke:none;stroke-width:0.5;stroke-linejoin:round;stroke-miterlimit:4;stroke-dasharray:none;stroke-dashoffset:0;stroke-opacity:1" />
    <path
       id="path883"
       title="exp(-x*x)"
       d=" M 145.520833 270.541648 C 145.520144543 268.399782908 144.822248862 266.25925037 143.484472293 264.267250531 C 142.146695723 262.275250692 140.168676908 260.434629391 137.711250656 258.858339832 C 135.253824405 257.282050274 132.317429905 255.972624038 129.122077455 254.985961915 C 125.926725005 253.999299791 122.474321381 253.337073926 118.992752252 252.992132458 C 115.511183124 252.64719099 112.002868429 252.62019212 108.657167205 252.85174112 C 105.311465981 253.083290119 102.130502048 253.573232318 99.2359485954 254.231963335 C 96.3413951426 254.890694353 93.7346575782 255.717635843 91.4625840074 256.617902347"
       style="opacity:0.97000002;fill:none;fill-opacity:1;stroke:none;stroke-width:0.5;stroke-linejoin:round;stroke-miterlimit:4;stroke-dasharray:none;stroke-dashoffset:0;stroke-opacity:1" />
    <path
       style="opacity:0.97000002;fill:none;fill-opacity:1;stroke:none;stroke-width:0.5;stroke-linejoin:round;stroke-miterlimit:4;stroke-dasharray:none;stroke-dashoffset:0;stroke-opacity:1"
       d="M 10.583333,220.27081 H 145.52083 v 50.27084 H 10.583333 Z"
       id="rect1244" />
    <path
       id="path1246"
       clip-path="url(#clipPath)"
       title="0.5*((x-0.2)**2)+0.2"
       d=" M 10.583333 224.29247656 C 17.0089282381 230.037030546 23.4345234762 235.098311591 29.8601187143 239.476319695 C 36.2857139524 243.854327799 42.7113091905 247.546327134 49.1369044286 250.556421442 C 55.5624996667 253.56651575 61.9880949048 255.890601289 68.4136901429 257.532781801 C 74.839285381 259.174962313 81.264880619 260.131134056 87.6904758571 260.405400772 C 94.1160710952 260.679667488 100.541666333 260.267925436 106.967261571 259.174278356 C 113.39285681 258.080631276 119.818452048 256.300975428 126.244047286 253.839414552 C 132.669642524 251.377853676 139.095237762 248.230284032 145.520833 244.40080936"
       style="opacity:0.97000002;fill:none;fill-opacity:1;stroke:#000000;stroke-width:0.5;stroke-linejoin:round;stroke-miterlimit:4;stroke-dasharray:none;stroke-dashoffset:0;stroke-opacity:1" />
    <path
       style="fill:none;stroke:#000000;stroke-width:0.61743116;stroke-linecap:butt;stroke-linejoin:miter;stroke-miterlimit:4;stroke-dasharray:0.6174312, 0.6174312;stroke-dashoffset:0;stroke-opacity:1"
       d="m 91.281249,220.27081 v 50.27084"
       id="path1262"
       inkscape:connector-curvature="0" />
    <g
       aria-label="単調減少"
       style="font-style:normal;font-weight:normal;font-size:4.43290043px;line-height:1.25;font-family:sans-serif;letter-spacing:0px;word-spacing:0px;fill:#000000;fill-opacity:1;stroke:none;stroke-width:0.11082251"
       id="text1274">
      <path
         d="m 69.685649,251.51433 h 0.467532 v 1.78355 h -0.34632 v -0.1039 H 68.85448 v 0.36364 h 1.818182 v 0.329 H 68.85448 v 0.72728 h -0.346321 v -0.72728 H 66.72461 v -0.329 h 1.783549 v -0.36364 h -0.935065 v 0.13853 h -0.34632 v -1.81818 h 2.060606 l 0.554113,-0.84849 0.329004,0.22511 q 0.08658,0.0693 -0.05195,0.0693 z m -1.108226,-0.81385 q 0.329005,0.27705 0.450217,0.50216 l -0.329004,0.24242 q -0.138529,-0.25974 -0.415585,-0.51948 z m -0.06926,1.50649 v -0.36364 h -0.935065 v 0.36364 z m 1.298702,0 v -0.36364 H 68.85448 v 0.36364 z m -1.298702,0.65801 v -0.32901 h -0.935065 v 0.32901 z m 1.298702,0 v -0.32901 H 68.85448 v 0.32901 z m -2.216451,-1.4026 q -0.138528,-0.27706 -0.380952,-0.50216 l 0.294372,-0.22511 q 0.277057,0.25974 0.415585,0.51948 z"
         style="stroke-width:0.11082251"
         id="path870" />
      <path
         d="m 72.213787,254.56195 v -0.12121 h -0.606061 v 0.19047 h -0.294372 v -1.41991 h 1.194805 v 1.35065 z m 0.744589,-3.75758 h 1.991342 v 3.5671 q 0,0.24243 -0.207792,0.24243 h -0.415585 l -0.06926,-0.32901 h 0.329004 q 0.06927,0 0.06927,-0.0693 v -3.08225 h -1.402598 v 1.97402 q 0,0.90044 -0.450216,1.5065 l -0.259741,-0.27706 q 0.415585,-0.57143 0.415585,-1.38528 z m 1.160173,1.48918 h 0.363636 v 0.27706 h -1.038961 v -0.27706 h 0.380953 v -0.41558 h -0.380953 v -0.27706 h 0.380953 v -0.34632 h 0.277056 q 0.138528,0.0173 0.01732,0.10389 v 0.24243 h 0.380952 v 0.27706 h -0.380952 z m -2.510823,1.87013 h 0.606061 v -0.67533 h -0.606061 z m -0.242424,-1.55844 h 1.142857 v 0.329 h -1.142857 z m 0,-1.81818 h 1.142857 v 0.329 h -1.142857 z m 1.367966,0.60606 v 0.329 H 71.15751 v -0.329 z m -1.367966,0.93506 v -0.329 h 1.142857 v 0.329 z m 2.406927,1.87013 h -0.294373 v -1.31602 h 0.917749 v 1.0736 h -0.623376 z m 0,-1.03896 v 0.51948 h 0.329004 v -0.51948 z"
         style="stroke-width:0.11082251"
         id="path872" />
      <path
         d="m 78.707294,253.09009 q 0.207792,-0.55412 0.329004,-1.14286 l 0.34632,0.17316 q 0.08658,0.0866 -0.08658,0.12121 -0.138528,0.65801 -0.484848,1.28139 0.294372,0.65801 0.380952,0.55411 0.08658,-0.1039 0.08658,-0.46753 l 0.329004,0.19047 q -0.08658,0.72728 -0.329004,0.77922 -0.294372,0.0693 -0.709957,-0.72727 -0.329004,0.45022 -1.038961,0.74459 l -0.225108,-0.29437 q 0.865801,-0.34632 1.142857,-0.81386 -0.190476,-1.07359 -0.207792,-1.87013 h -1.281385 v 1.45455 q 0,0.84849 -0.450217,1.54113 l -0.311688,-0.22511 q 0.467533,-0.65801 0.467533,-1.57576 v -1.52381 h 1.575757 v -0.65801 h 0.329004 q 0.138529,0.0173 0.01732,0.1039 v 0.55411 h 0.865801 v 0.329 h -0.865801 q 0.03463,0.91775 0.121213,1.47187 z m 0.329004,-1.8355 q -0.138528,-0.17316 -0.34632,-0.32901 l 0.225108,-0.17316 q 0.242424,0.12122 0.363636,0.27706 z m -3.116883,3.18615 q 0.08658,0.17316 -0.06926,0.10389 l -0.329005,-0.24242 q 0.415585,-0.65801 0.640693,-1.33334 l 0.294372,0.19048 q -0.138528,0.58874 -0.536796,1.28139 z m 1.264069,-1.90477 h 0.935065 v 1.14286 h -0.640693 v 0.29437 h -0.294372 z m 0.294372,0.8658 h 0.346321 v -0.58874 h -0.346321 z m -0.329004,-1.14285 v -0.32901 h 0.987013 v 0.32901 z m -0.987013,0.39827 q -0.311688,-0.32901 -0.554113,-0.50217 l 0.242425,-0.329 q 0.294372,0.19047 0.554112,0.48485 z m -0.103896,-1.85282 q 0.294372,0.20779 0.536796,0.50217 l -0.277056,0.31168 q -0.277056,-0.329 -0.51948,-0.51948 z"
         style="stroke-width:0.11082251"
         id="path874" />
      <path
         d="m 83.694307,252.76108 q -0.519481,-0.69264 -1.004329,-1.09091 l 0.242424,-0.25974 q 0.60606,0.34632 1.090909,1.03896 z m -3.376624,1.45455 q 1.904762,-0.0173 2.805195,-1.61039 l 0.311688,0.29437 q 0.121212,0.12121 -0.08658,0.12121 -1.056277,1.55844 -2.874459,1.61039 z m -0.25974,-1.36797 q 0.51948,-0.45021 0.848485,-1.4026 l 0.398268,0.17316 q 0.06926,0.0693 -0.05195,0.0866 -0.277056,0.93507 -0.900433,1.48918 z m 2.12987,0.4329 q 0,0.22511 -0.242424,0.22511 h -0.502165 l -0.05195,-0.38095 h 0.329005 q 0.06926,0 0.06926,-0.0693 v -2.30303 h 0.380952 q 0.17316,0.0346 0.01732,0.13853 z"
         style="stroke-width:0.11082251"
         id="path876" />
    </g>
    <g
       aria-label="単調増加"
       style="font-style:normal;font-weight:normal;font-size:4.39484978px;line-height:1.25;font-family:sans-serif;letter-spacing:0px;word-spacing:0px;fill:#000000;fill-opacity:1;stroke:none;stroke-width:0.10987124"
       id="text4981">
      <path
         d="m 100.0873,251.40044 h 0.46352 v 1.76824 h -0.34334 v -0.10301 h -0.94421 v 0.36052 h 1.80258 v 0.32618 h -1.80258 v 0.72103 h -0.343348 v -0.72103 h -1.76824 v -0.32618 h 1.76824 v -0.36052 h -0.927038 v 0.13734 h -0.343348 v -1.80257 h 2.042919 l 0.549355,-0.8412 0.32618,0.22317 q 0.0858,0.0687 -0.0515,0.0687 z m -1.098708,-0.80687 q 0.32618,0.27468 0.446352,0.49786 l -0.32618,0.24034 q -0.137339,-0.25751 -0.412017,-0.51502 z m -0.06867,1.49356 v -0.36051 h -0.927038 v 0.36051 z m 1.287558,0 v -0.36051 h -0.94421 v 0.36051 z m -1.287558,0.65236 v -0.32618 h -0.927038 v 0.32618 z m 1.287558,0 v -0.32618 h -0.94421 v 0.32618 z m -2.197429,-1.39055 q -0.137339,-0.27468 -0.377682,-0.49786 l 0.291845,-0.22317 q 0.274678,0.25751 0.412018,0.51502 z"
         style="stroke-width:0.10987124"
         id="path879" />
      <path
         d="m 102.59374,254.4219 v -0.12017 h -0.60086 v 0.18884 h -0.29184 v -1.40773 h 1.18455 v 1.33906 z m 0.7382,-3.72532 h 1.97425 v 3.53648 q 0,0.24034 -0.20601,0.24034 h -0.41202 l -0.0687,-0.32618 h 0.32618 q 0.0687,0 0.0687,-0.0687 v -3.05579 h -1.39055 v 1.95708 q 0,0.8927 -0.44636,1.49356 l -0.25751,-0.27468 q 0.41202,-0.56652 0.41202,-1.37339 z m 1.15021,1.47639 h 0.36052 v 0.27468 h -1.03004 v -0.27468 h 0.37768 v -0.41202 h -0.37768 v -0.27467 h 0.37768 v -0.34335 h 0.27468 q 0.13734,0.0172 0.0172,0.103 v 0.24035 h 0.37769 v 0.27467 h -0.37769 z m -2.48927,1.85408 h 0.60086 v -0.66953 h -0.60086 z m -0.24034,-1.54507 h 1.13305 v 0.32618 h -1.13305 z m 0,-1.80257 h 1.13305 v 0.32618 h -1.13305 z m 1.35622,0.60086 v 0.32618 h -1.56223 v -0.32618 z m -1.35622,0.92704 v -0.32619 h 1.13305 v 0.32619 z m 2.38627,1.85407 h -0.29185 v -1.30472 h 0.90987 v 1.06438 h -0.61802 z m 0,-1.03004 v 0.51502 h 0.32618 v -0.51502 z"
         style="stroke-width:0.10987124"
         id="path881" />
      <path
         d="m 107.89846,251.2116 q -0.12017,-0.20601 -0.29184,-0.39485 l 0.29184,-0.22318 q 0.22318,0.20601 0.32618,0.42919 l -0.25751,0.18884 h 0.99571 l -0.24034,-0.12017 q 0.1545,-0.30902 0.22317,-0.56653 l 0.36052,0.15451 q 0.0687,0.0687 -0.0515,0.0858 -0.0687,0.17167 -0.22318,0.44635 h 0.70386 v 1.44206 h -2.43777 v -1.44206 z m -0.65236,2.00858 0.0515,0.30901 -1.16738,0.30902 q -0.0172,0.13734 -0.0858,0.0687 l -0.13734,-0.39485 0.51502,-0.10301 v -1.39056 h -0.46352 v -0.32618 h 0.46352 v -1.06437 h 0.32618 q 0.13734,0.0172 0.0172,0.103 v 0.96137 h 0.39485 v 0.32618 h -0.39485 v 1.32189 z m 1.09872,-1.42489 v -0.30901 h -0.70387 v 0.30901 z m 1.04721,0 v -0.30901 h -0.70387 v 0.30901 z m 0,0.58369 v -0.30901 h -0.70387 v 0.30901 z m -1.04721,0 v -0.30901 h -0.70387 v 0.30901 z m 0.8412,1.11588 v -0.32618 h -1.32189 v 0.32618 z m 0.34334,0.99571 h -0.34334 v -0.10301 h -1.32189 v 0.13734 h -0.34335 v -1.6309 h 2.00858 z m -0.34334,-0.37769 v -0.34334 h -1.32189 v 0.34334 z"
         style="stroke-width:0.10987124"
         id="path884" />
      <path
         d="m 111.9328,251.72662 h -0.51502 v 0.29184 q 0,1.44206 -0.84121,2.35194 l -0.29184,-0.25752 q 0.7897,-0.8927 0.7897,-2.11158 v -0.27468 h -0.63519 v -0.32618 h 0.63519 v -0.77253 h 0.32618 q 0.13734,0.0172 0.0172,0.103 v 0.66953 h 0.85837 v 1.6309 q 0,0.68669 -0.10301,0.94421 -0.12017,0.29184 -0.49785,0.29184 h -0.27468 l -0.0343,-0.37768 h 0.27468 q 0.17168,0 0.22318,-0.15451 0.0687,-0.17167 0.0687,-0.65236 z m 0.63519,-0.51502 h 1.51073 v 2.93562 h -0.34335 v -0.20601 h -0.82403 v 0.27468 h -0.34335 z m 0.34335,0.32618 v 2.07725 h 0.82403 v -2.07725 z"
         style="stroke-width:0.10987124"
         id="path886" />
    </g>
    <g
       aria-label="t"
       style="font-style:normal;font-weight:normal;font-size:9.95500851px;line-height:1.25;font-family:sans-serif;letter-spacing:0px;word-spacing:0px;fill:#000000;fill-opacity:1;stroke:none;stroke-width:0.24887522"
       id="text860">
      <path
         d="m 91.503691,272.09479 v 1.46311 h 1.040221 v 0.34026 h -1.040221 v 2.88734 q 0,0.43262 0.121521,0.58331 0.126382,0.15068 0.320816,0.15068 0.160408,0 0.311094,-0.0972 0.150686,-0.10207 0.23332,-0.29651 h 0.189573 q -0.170129,0.47637 -0.481223,0.71941 -0.311094,0.23818 -0.641632,0.23818 -0.223599,0 -0.437476,-0.12152 -0.213877,-0.12638 -0.315955,-0.35484 -0.102077,-0.23332 -0.102077,-0.71455 v -2.99428 h -0.704823 v -0.1604 q 0.267347,-0.10694 0.544415,-0.35971 0.281929,-0.25762 0.500667,-0.6076 0.111799,-0.18471 0.311094,-0.67566 z"
         style="font-style:normal;font-variant:normal;font-weight:normal;font-stretch:normal;font-size:9.95500851px;font-family:serif;-inkscape-font-specification:'serif, Normal';font-variant-ligatures:normal;font-variant-caps:normal;font-variant-numeric:normal;font-feature-settings:normal;text-align:start;writing-mode:lr-tb;text-anchor:start;stroke-width:0.24887522"
         id="path863" />
    </g>
  </g>
</svg>
